<svg id="svg" version="1.1" xmlns="http://www.w3.org/2000/svg" xmlns:xlink="http://www.w3.org/1999/xlink" width="400" height="400" viewBox="0, 0, 400,400"><g id="svgg"><path id="path0" d="M188.267 166.800 C 192.591 171.127,196.190 174.667,196.263 174.667 C 196.337 174.667,192.858 171.127,188.533 166.800 C 184.209 162.473,180.610 158.933,180.537 158.933 C 180.463 158.933,183.942 162.473,188.267 166.800 M233.067 163.453 C 232.407 164.023,231.935 164.557,232.017 164.639 C 232.099 164.721,232.694 164.251,233.339 163.594 C 234.777 162.129,234.665 162.071,233.067 163.453 M223.860 172.867 L 222.000 174.800 223.933 172.940 C 225.729 171.213,225.988 170.933,225.793 170.933 C 225.752 170.933,224.882 171.803,223.860 172.867 M227.452 180.733 L 226.533 181.733 227.533 180.814 C 228.083 180.309,228.533 179.859,228.533 179.814 C 228.533 179.611,228.308 179.803,227.452 180.733 M204.800 183.333 C 205.597 184.140,206.308 184.800,206.382 184.800 C 206.455 184.800,205.863 184.140,205.067 183.333 C 204.270 182.527,203.558 181.867,203.485 181.867 C 203.412 181.867,204.003 182.527,204.800 183.333 M243.467 182.483 C 243.467 182.529,243.857 182.919,244.333 183.350 L 245.200 184.133 244.417 183.267 C 243.687 182.459,243.467 182.277,243.467 182.483 M218.663 189.533 L 215.333 192.933 218.733 189.604 C 221.892 186.511,222.254 186.133,222.063 186.133 C 222.024 186.133,220.494 187.663,218.663 189.533 M263.733 191.600 C 264.231 192.113,264.698 192.533,264.771 192.533 C 264.845 192.533,264.498 192.113,264.000 191.600 C 263.502 191.087,263.035 190.667,262.962 190.667 C 262.889 190.667,263.236 191.087,263.733 191.600 M277.600 205.467 C 283.979 211.847,289.258 217.067,289.331 217.067 C 289.404 217.067,284.245 211.847,277.867 205.467 C 271.488 199.087,266.209 193.867,266.136 193.867 C 266.062 193.867,271.221 199.087,277.600 205.467 M179.989 196.333 C 180.643 197.030,181.213 197.600,181.256 197.600 C 181.456 197.600,181.244 197.361,180.067 196.256 L 178.800 195.067 179.989 196.333 M228.397 204.067 L 223.867 208.667 228.467 204.136 C 232.740 199.927,233.187 199.467,232.997 199.467 C 232.959 199.467,230.889 201.537,228.397 204.067 M264.800 203.867 C 265.298 204.380,265.765 204.800,265.838 204.800 C 265.911 204.800,265.564 204.380,265.067 203.867 C 264.569 203.353,264.102 202.933,264.029 202.933 C 263.955 202.933,264.302 203.353,264.800 203.867 M202.531 205.603 C 202.111 206.041,201.888 206.400,202.037 206.400 C 202.380 206.400,203.602 205.113,203.426 204.937 C 203.354 204.865,202.951 205.164,202.531 205.603 M266.667 205.417 C 266.667 205.463,267.057 205.853,267.533 206.283 L 268.400 207.067 267.617 206.200 C 266.887 205.392,266.667 205.211,266.667 205.417 M198.662 209.527 L 195.867 212.387 198.533 209.871 C 200.000 208.488,201.376 207.201,201.590 207.011 C 201.805 206.822,201.863 206.667,201.719 206.667 C 201.575 206.667,200.199 207.954,198.662 209.527 M217.729 214.467 L 214.800 217.467 217.800 214.538 C 220.587 211.818,220.921 211.467,220.729 211.467 C 220.690 211.467,219.340 212.817,217.729 214.467 M226.662 216.467 L 223.867 219.333 226.733 216.538 C 228.310 215.001,229.600 213.711,229.600 213.671 C 229.600 213.479,229.258 213.804,226.662 216.467 M199.600 216.000 C 200.322 216.733,200.973 217.333,201.047 217.333 C 201.120 217.333,200.589 216.733,199.867 216.000 C 199.144 215.267,198.493 214.667,198.420 214.667 C 198.347 214.667,198.878 215.267,199.600 216.000 M216.394 227.800 L 214.000 230.267 216.467 227.872 C 217.823 226.555,218.933 225.445,218.933 225.406 C 218.933 225.212,218.618 225.509,216.394 227.800 M201.067 228.133 C 202.307 229.380,203.382 230.400,203.455 230.400 C 203.528 230.400,202.574 229.380,201.333 228.133 C 200.093 226.887,199.018 225.867,198.945 225.867 C 198.872 225.867,199.826 226.887,201.067 228.133 M290.133 228.617 C 290.133 228.663,290.523 229.053,291.000 229.483 L 291.867 230.267 291.083 229.400 C 290.353 228.592,290.133 228.411,290.133 228.617 M211.195 233.000 L 208.667 235.600 211.267 233.072 C 213.682 230.724,213.988 230.400,213.795 230.400 C 213.755 230.400,212.585 231.570,211.195 233.000 M307.333 235.200 C 308.794 236.667,310.050 237.867,310.123 237.867 C 310.197 237.867,309.061 236.667,307.600 235.200 C 306.139 233.733,304.883 232.533,304.810 232.533 C 304.737 232.533,305.872 233.733,307.333 235.200 M301.067 239.550 C 301.067 239.596,301.457 239.986,301.933 240.417 L 302.800 241.200 302.017 240.333 C 301.287 239.525,301.067 239.344,301.067 239.550 " stroke="none" fill="#f4f4f4" fill-rule="evenodd"></path><path id="path1" d="M168.383 162.200 L 167.600 163.067 168.467 162.283 C 169.275 161.553,169.456 161.333,169.250 161.333 C 169.204 161.333,168.814 161.723,168.383 162.200 M252.000 179.600 C 261.606 189.207,269.525 197.067,269.598 197.067 C 269.672 197.067,261.872 189.207,252.267 179.600 C 242.661 169.993,234.742 162.133,234.668 162.133 C 234.595 162.133,242.394 169.993,252.000 179.600 M228.396 168.067 L 224.933 171.600 228.467 168.137 C 231.749 164.921,232.121 164.533,231.929 164.533 C 231.891 164.533,230.301 166.123,228.396 168.067 M189.867 179.600 C 197.419 187.153,203.658 193.333,203.731 193.333 C 203.805 193.333,197.686 187.153,190.133 179.600 C 182.581 172.047,176.342 165.867,176.269 165.867 C 176.195 165.867,182.314 172.047,189.867 179.600 M160.650 169.667 L 159.867 170.533 160.733 169.750 C 161.210 169.319,161.600 168.929,161.600 168.883 C 161.600 168.677,161.380 168.859,160.650 169.667 M153.183 176.867 L 152.400 177.733 153.267 176.950 C 153.743 176.519,154.133 176.129,154.133 176.083 C 154.133 175.877,153.913 176.059,153.183 176.867 M243.467 182.750 C 243.467 182.796,243.857 183.186,244.333 183.617 L 245.200 184.400 244.417 183.533 C 243.687 182.725,243.467 182.544,243.467 182.750 M145.717 184.067 L 144.933 184.933 145.800 184.150 C 146.277 183.719,146.667 183.329,146.667 183.283 C 146.667 183.077,146.447 183.259,145.717 184.067 M207.733 186.000 C 208.530 186.807,209.242 187.467,209.315 187.467 C 209.388 187.467,208.797 186.807,208.000 186.000 C 207.203 185.193,206.492 184.533,206.418 184.533 C 206.345 184.533,206.937 185.193,207.733 186.000 M250.000 189.333 C 251.314 190.653,252.449 191.733,252.522 191.733 C 252.596 191.733,251.581 190.653,250.267 189.333 C 248.953 188.013,247.818 186.933,247.744 186.933 C 247.671 186.933,248.686 188.013,250.000 189.333 M137.983 191.533 L 137.200 192.400 138.067 191.617 C 138.875 190.887,139.056 190.667,138.850 190.667 C 138.804 190.667,138.414 191.057,137.983 191.533 M210.265 198.200 L 203.333 205.200 210.333 198.269 C 216.838 191.827,217.453 191.200,217.265 191.200 C 217.227 191.200,214.077 194.350,210.265 198.200 M131.317 197.933 L 130.533 198.800 131.400 198.017 C 132.208 197.287,132.389 197.067,132.183 197.067 C 132.137 197.067,131.747 197.457,131.317 197.933 M228.397 203.800 L 223.867 208.400 228.467 203.870 C 232.740 199.661,233.187 199.200,232.997 199.200 C 232.959 199.200,230.889 201.270,228.397 203.800 M195.452 201.267 L 194.533 202.267 195.533 201.348 C 196.464 200.492,196.656 200.267,196.452 200.267 C 196.408 200.267,195.958 200.717,195.452 201.267 M137.717 203.000 L 136.933 203.867 137.800 203.083 C 138.277 202.653,138.667 202.263,138.667 202.217 C 138.667 202.011,138.447 202.192,137.717 203.000 M186.933 214.267 C 193.459 220.793,198.858 226.133,198.931 226.133 C 199.004 226.133,193.725 220.793,187.200 214.267 C 180.675 207.740,175.276 202.400,175.202 202.400 C 175.129 202.400,180.408 207.740,186.933 214.267 M266.667 205.683 C 266.667 205.729,267.057 206.119,267.533 206.550 L 268.400 207.333 267.617 206.467 C 266.887 205.659,266.667 205.477,266.667 205.683 M199.058 209.400 L 197.467 211.067 199.133 209.475 C 200.050 208.600,200.800 207.850,200.800 207.808 C 200.800 207.611,200.537 207.852,199.058 209.400 M273.467 212.533 C 274.781 213.853,275.916 214.933,275.989 214.933 C 276.062 214.933,275.047 213.853,273.733 212.533 C 272.419 211.213,271.284 210.133,271.211 210.133 C 271.138 210.133,272.153 211.213,273.467 212.533 M116.383 212.333 L 115.600 213.200 116.467 212.417 C 117.275 211.687,117.456 211.467,117.250 211.467 C 117.204 211.467,116.814 211.857,116.383 212.333 M153.450 212.333 L 152.667 213.200 153.533 212.417 C 154.341 211.687,154.523 211.467,154.317 211.467 C 154.271 211.467,153.881 211.857,153.450 212.333 M146.517 219.000 L 145.733 219.867 146.600 219.083 C 147.408 218.353,147.589 218.133,147.383 218.133 C 147.337 218.133,146.947 218.523,146.517 219.000 M108.917 219.533 L 108.133 220.400 109.000 219.617 C 109.808 218.887,109.989 218.667,109.783 218.667 C 109.737 218.667,109.347 219.057,108.917 219.533 M210.124 222.067 L 208.667 223.600 210.200 222.142 C 211.625 220.788,211.855 220.533,211.658 220.533 C 211.616 220.533,210.926 221.223,210.124 222.067 M139.583 225.667 L 138.800 226.533 139.667 225.750 C 140.143 225.319,140.533 224.929,140.533 224.883 C 140.533 224.677,140.313 224.859,139.583 225.667 M101.450 226.733 L 100.667 227.600 101.533 226.817 C 102.341 226.087,102.523 225.867,102.317 225.867 C 102.271 225.867,101.881 226.257,101.450 226.733 M290.133 228.883 C 290.133 228.929,290.523 229.319,291.000 229.750 L 291.867 230.533 291.083 229.667 C 290.353 228.859,290.133 228.677,290.133 228.883 M132.917 232.067 L 132.133 232.933 133.000 232.150 C 133.808 231.420,133.989 231.200,133.783 231.200 C 133.737 231.200,133.347 231.590,132.917 232.067 M93.983 233.933 L 93.200 234.800 94.067 234.017 C 94.875 233.287,95.056 233.067,94.850 233.067 C 94.804 233.067,94.414 233.457,93.983 233.933 M296.933 235.733 C 298.394 237.200,299.650 238.400,299.723 238.400 C 299.797 238.400,298.661 237.200,297.200 235.733 C 295.739 234.267,294.483 233.067,294.410 233.067 C 294.337 233.067,295.472 234.267,296.933 235.733 M104.650 234.733 L 103.867 235.600 104.733 234.817 C 105.541 234.087,105.723 233.867,105.517 233.867 C 105.471 233.867,105.081 234.257,104.650 234.733 M125.717 239.000 L 124.933 239.867 125.800 239.083 C 126.277 238.653,126.667 238.263,126.667 238.217 C 126.667 238.011,126.447 238.192,125.717 239.000 M86.250 241.400 L 85.467 242.267 86.333 241.483 C 87.141 240.753,87.323 240.533,87.117 240.533 C 87.071 240.533,86.681 240.923,86.250 241.400 M88.267 245.067 L 82.533 245.216 88.184 245.275 C 91.729 245.311,93.897 245.234,94.000 245.067 C 94.091 244.920,94.128 244.826,94.082 244.859 C 94.037 244.891,91.420 244.985,88.267 245.067 M246.933 245.067 L 241.467 245.217 247.000 245.275 C 250.550 245.312,252.533 245.238,252.533 245.067 C 252.533 244.920,252.503 244.826,252.467 244.858 C 252.430 244.890,249.940 244.984,246.933 245.067 M122.200 245.266 C 123.777 245.313,126.357 245.313,127.933 245.266 C 129.510 245.219,128.220 245.180,125.067 245.180 C 121.913 245.180,120.623 245.219,122.200 245.266 M150.452 245.266 C 152.020 245.313,154.660 245.313,156.319 245.266 C 157.977 245.219,156.693 245.181,153.467 245.180 C 150.240 245.180,148.883 245.218,150.452 245.266 M192.467 245.266 C 194.117 245.313,196.817 245.313,198.467 245.266 C 200.117 245.219,198.767 245.181,195.467 245.181 C 192.167 245.181,190.817 245.219,192.467 245.266 M275.548 245.266 C 277.132 245.313,279.652 245.313,281.148 245.265 C 282.643 245.218,281.347 245.179,278.267 245.180 C 275.187 245.180,273.963 245.219,275.548 245.266 M309.267 245.266 C 310.770 245.313,313.230 245.313,314.733 245.266 C 316.237 245.218,315.007 245.179,312.000 245.179 C 308.993 245.179,307.763 245.218,309.267 245.266 " stroke="none" fill="#fcfcfc" fill-rule="evenodd"></path><path id="path2" d="M175.264 155.674 C 174.786 156.073,174.396 156.550,174.398 156.733 C 174.399 156.917,174.281 157.067,174.136 157.067 C 173.991 157.067,172.445 158.477,170.701 160.200 C 168.957 161.923,167.426 163.393,167.299 163.467 C 167.171 163.540,167.098 163.693,167.136 163.807 C 167.174 163.922,167.007 164.091,166.764 164.184 C 166.522 164.277,165.111 165.550,163.629 167.012 C 162.146 168.475,160.543 169.970,160.067 170.334 C 159.590 170.699,159.200 171.162,159.200 171.365 C 159.200 171.568,159.081 171.733,158.936 171.733 C 158.791 171.733,157.245 173.143,155.501 174.867 C 153.757 176.590,152.226 178.060,152.099 178.133 C 151.971 178.207,151.898 178.360,151.936 178.474 C 151.974 178.588,151.814 178.755,151.580 178.845 C 151.346 178.934,149.719 180.425,147.964 182.158 C 146.210 183.890,144.695 185.297,144.597 185.284 C 144.499 185.272,144.295 185.488,144.143 185.764 C 143.991 186.040,143.727 186.357,143.555 186.468 C 143.384 186.578,141.848 188.042,140.141 189.720 C 138.435 191.398,136.955 192.808,136.853 192.852 C 136.750 192.897,136.698 193.027,136.736 193.141 C 136.774 193.255,136.608 193.424,136.368 193.516 C 136.127 193.608,134.691 194.909,133.175 196.407 C 131.659 197.904,130.350 199.061,130.265 198.976 C 130.181 198.892,130.043 199.088,129.958 199.412 C 129.874 199.735,129.700 200.000,129.573 200.000 C 129.446 200.000,127.981 201.350,126.317 203.000 C 124.653 204.650,123.194 206.000,123.075 206.000 C 122.956 206.000,122.725 206.240,122.562 206.533 C 122.400 206.827,122.129 207.156,121.960 207.265 C 121.792 207.374,120.201 208.893,118.426 210.641 C 116.650 212.389,115.277 213.692,115.373 213.535 C 115.477 213.367,115.423 213.329,115.241 213.441 C 115.072 213.546,114.933 213.804,114.933 214.016 C 114.933 214.227,114.815 214.400,114.669 214.400 C 114.524 214.400,112.966 215.822,111.207 217.560 C 109.448 219.298,107.943 220.654,107.861 220.572 C 107.779 220.490,107.643 220.688,107.558 221.012 C 107.474 221.335,107.309 221.600,107.192 221.600 C 107.076 221.600,105.530 223.020,103.757 224.756 C 101.984 226.491,100.533 227.869,100.533 227.817 C 100.533 227.765,98.823 229.429,96.733 231.515 C 94.643 233.600,92.873 235.266,92.800 235.217 C 92.727 235.167,92.518 235.413,92.337 235.763 C 92.156 236.113,92.006 236.319,92.004 236.220 C 92.002 236.122,90.770 237.247,89.267 238.722 C 87.763 240.197,86.143 241.702,85.667 242.067 C 85.190 242.431,84.800 242.875,84.800 243.053 C 84.800 243.231,84.524 243.524,84.187 243.704 C 82.000 244.875,82.586 245.067,88.361 245.067 L 93.794 245.067 96.362 242.576 C 97.775 241.207,98.988 240.144,99.059 240.215 C 99.130 240.285,99.272 240.116,99.374 239.838 C 99.477 239.561,99.690 239.250,99.847 239.148 C 100.232 238.899,104.568 234.786,108.952 230.510 C 110.920 228.590,112.596 227.085,112.676 227.165 C 112.756 227.245,112.890 227.045,112.975 226.722 C 113.060 226.398,113.226 226.133,113.345 226.133 C 113.464 226.133,114.836 224.879,116.393 223.346 C 117.951 221.813,119.309 220.523,119.412 220.479 C 119.516 220.436,119.569 220.307,119.531 220.193 C 119.493 220.078,119.672 219.904,119.929 219.806 C 120.187 219.707,121.746 218.285,123.394 216.646 C 125.042 215.007,126.314 213.789,126.221 213.941 C 126.123 214.099,126.181 214.135,126.359 214.025 C 126.528 213.921,126.667 213.642,126.667 213.406 C 126.667 213.171,126.731 213.043,126.811 213.122 C 126.890 213.201,128.278 211.969,129.895 210.384 C 131.512 208.799,132.917 207.464,133.018 207.418 C 133.118 207.371,133.169 207.240,133.131 207.126 C 133.093 207.012,133.265 206.840,133.514 206.745 C 133.763 206.649,135.145 205.403,136.585 203.974 C 138.026 202.546,139.125 201.506,139.028 201.663 C 138.923 201.832,138.976 201.871,139.159 201.759 C 139.328 201.654,139.467 201.376,139.467 201.140 C 139.467 200.904,139.530 200.774,139.608 200.852 C 139.685 200.929,141.118 199.652,142.792 198.013 C 144.467 196.374,145.765 195.149,145.677 195.291 C 145.589 195.433,145.656 195.464,145.825 195.359 C 145.995 195.254,146.133 194.976,146.133 194.740 C 146.133 194.504,146.205 194.383,146.293 194.471 C 146.381 194.559,147.757 193.335,149.351 191.751 C 150.945 190.167,152.318 188.940,152.402 189.024 C 152.486 189.108,152.624 188.912,152.708 188.588 C 152.793 188.265,152.960 188.000,153.080 188.000 C 153.199 188.000,154.595 186.727,156.182 185.171 C 157.769 183.615,159.127 182.355,159.200 182.371 C 159.273 182.387,159.333 182.282,159.333 182.138 C 159.333 181.995,159.633 181.668,160.000 181.412 C 160.367 181.156,161.772 179.849,163.124 178.508 C 164.475 177.167,165.650 176.139,165.734 176.223 C 165.819 176.308,165.957 176.112,166.042 175.788 C 166.126 175.465,166.298 175.200,166.422 175.200 C 166.547 175.200,167.943 173.917,169.525 172.349 C 171.106 170.781,172.460 169.491,172.533 169.482 C 172.607 169.474,172.636 169.373,172.598 169.259 C 172.559 169.145,172.722 168.977,172.959 168.886 C 173.196 168.795,174.053 168.074,174.863 167.284 C 175.672 166.493,176.373 165.881,176.420 165.923 C 176.467 165.965,182.612 172.095,190.076 179.545 L 203.646 193.091 198.156 198.630 C 195.137 201.676,192.116 204.669,191.442 205.280 L 190.217 206.391 182.729 198.971 L 175.240 191.552 174.214 192.643 C 173.649 193.242,173.070 193.763,172.927 193.800 C 172.784 193.837,172.667 193.984,172.667 194.128 C 172.667 194.272,172.367 194.598,172.000 194.852 C 171.633 195.106,170.161 196.480,168.728 197.906 C 167.295 199.332,166.204 200.368,166.303 200.208 C 166.410 200.034,166.359 199.994,166.175 200.108 C 166.005 200.213,165.867 200.491,165.867 200.727 C 165.867 200.963,165.802 201.091,165.722 201.011 C 165.643 200.932,164.253 202.172,162.633 203.767 C 161.013 205.362,159.571 206.667,159.428 206.667 C 159.285 206.667,159.243 206.788,159.334 206.935 C 159.426 207.083,159.306 207.278,159.069 207.369 C 158.628 207.539,155.999 210.028,149.163 216.749 C 147.028 218.848,145.372 220.420,145.482 220.242 C 145.610 220.035,145.571 219.987,145.375 220.108 C 145.205 220.213,145.067 220.491,145.067 220.727 C 145.067 220.963,145.001 221.090,144.921 221.010 C 144.841 220.930,143.405 222.214,141.730 223.864 C 140.056 225.514,138.617 226.795,138.532 226.710 C 138.448 226.626,138.310 226.821,138.225 227.145 C 138.140 227.469,137.980 227.733,137.868 227.733 C 137.756 227.733,136.660 228.709,135.432 229.902 C 134.204 231.095,132.810 232.369,132.333 232.734 C 131.857 233.098,131.467 233.562,131.467 233.765 C 131.467 233.968,131.359 234.133,131.227 234.133 C 131.096 234.133,129.598 235.496,127.900 237.162 C 126.202 238.827,124.745 240.122,124.662 240.040 C 124.580 239.957,124.443 240.155,124.358 240.478 C 124.274 240.802,124.106 241.067,123.986 241.067 C 123.866 241.067,123.068 241.757,122.212 242.600 C 119.470 245.305,119.172 245.067,125.291 245.067 L 130.648 245.067 132.502 243.267 C 133.522 242.277,134.456 241.407,134.578 241.333 C 134.700 241.260,134.769 241.107,134.731 240.993 C 134.693 240.878,134.861 240.709,135.105 240.615 C 135.348 240.522,136.745 239.251,138.209 237.791 C 139.672 236.332,140.776 235.290,140.660 235.477 C 140.524 235.698,140.558 235.750,140.759 235.625 C 140.928 235.521,141.067 235.242,141.067 235.006 C 141.067 234.771,141.136 234.647,141.221 234.732 C 141.305 234.816,142.693 233.576,144.304 231.975 C 145.915 230.374,147.147 229.203,147.042 229.373 C 146.923 229.565,146.968 229.610,147.159 229.492 C 147.328 229.387,147.467 229.109,147.467 228.873 C 147.467 228.637,147.536 228.514,147.621 228.599 C 147.706 228.684,149.103 227.428,150.725 225.808 C 152.347 224.189,153.579 223.018,153.463 223.206 C 153.324 223.431,153.357 223.484,153.559 223.359 C 153.728 223.254,153.867 222.976,153.867 222.740 C 153.867 222.504,153.937 222.381,154.022 222.467 C 154.108 222.552,155.497 221.308,157.110 219.702 C 158.723 218.096,159.955 216.924,159.847 217.099 C 159.723 217.298,159.765 217.345,159.959 217.225 C 160.128 217.121,160.267 216.842,160.267 216.606 C 160.267 216.371,160.336 216.248,160.422 216.333 C 160.507 216.418,161.887 215.189,163.489 213.601 C 165.091 212.014,166.323 210.842,166.226 210.999 C 166.123 211.166,166.177 211.204,166.359 211.092 C 166.528 210.987,166.667 210.709,166.667 210.473 C 166.667 210.237,166.737 210.114,166.822 210.200 C 166.908 210.286,168.408 208.926,170.156 207.178 C 171.903 205.430,173.333 204.060,173.333 204.133 C 173.333 204.206,173.776 203.848,174.317 203.338 C 174.857 202.828,175.327 202.438,175.361 202.472 C 175.395 202.506,182.903 209.973,192.045 219.067 L 208.667 235.600 213.714 230.483 C 219.278 224.841,218.847 225.066,220.686 226.852 C 221.262 227.411,222.436 228.469,223.295 229.201 C 224.154 229.934,225.129 230.773,225.462 231.067 C 225.794 231.360,226.576 232.020,227.198 232.533 C 228.907 233.943,230.388 235.264,231.007 235.933 C 231.313 236.263,231.700 236.533,231.867 236.533 C 232.034 236.533,232.506 236.953,232.915 237.467 C 233.324 237.980,233.780 238.400,233.927 238.400 C 234.075 238.400,234.631 238.851,235.164 239.401 C 236.478 240.759,239.368 243.259,240.084 243.657 C 240.405 243.835,240.560 243.985,240.431 243.991 C 240.301 243.996,240.500 244.240,240.873 244.533 C 241.498 245.025,241.955 245.067,246.775 245.067 C 252.259 245.067,252.730 244.951,251.133 243.998 C 250.657 243.713,249.860 242.997,249.362 242.407 C 248.865 241.816,248.325 241.332,248.162 241.330 C 248.000 241.328,247.402 240.788,246.834 240.130 C 246.265 239.472,245.665 238.932,245.500 238.930 C 245.335 238.928,244.735 238.388,244.167 237.730 C 243.599 237.072,243.017 236.533,242.874 236.533 C 242.731 236.533,242.104 235.993,241.480 235.333 C 240.857 234.673,240.257 234.133,240.147 234.133 C 240.037 234.133,239.437 233.593,238.814 232.933 C 238.190 232.273,237.590 231.733,237.480 231.733 C 237.370 231.733,236.770 231.193,236.147 230.533 C 235.524 229.873,234.924 229.333,234.814 229.333 C 234.704 229.333,234.104 228.793,233.480 228.133 C 232.857 227.473,232.247 226.933,232.125 226.933 C 232.004 226.933,231.401 226.393,230.786 225.733 C 230.172 225.073,229.526 224.533,229.352 224.533 C 229.178 224.533,229.109 224.413,229.200 224.267 C 229.291 224.120,229.236 224.000,229.078 224.000 C 228.920 224.000,228.383 223.580,227.884 223.067 C 227.386 222.553,226.841 222.133,226.673 222.133 C 226.506 222.133,226.443 222.013,226.533 221.867 C 226.624 221.720,226.567 221.600,226.407 221.600 C 226.247 221.600,225.709 221.193,225.211 220.696 C 224.714 220.198,224.148 219.728,223.953 219.651 C 223.732 219.563,225.567 217.578,228.850 214.355 L 234.099 209.200 235.016 210.133 C 235.520 210.647,236.783 211.847,237.823 212.800 C 238.864 213.753,240.422 215.193,241.287 216.000 C 242.152 216.807,243.964 218.487,245.314 219.733 C 246.663 220.980,248.420 222.641,249.217 223.423 C 250.014 224.206,250.667 224.783,250.667 224.705 C 250.667 224.627,251.447 225.343,252.400 226.296 C 253.353 227.250,254.133 227.976,254.133 227.910 C 254.133 227.845,254.780 228.438,255.571 229.229 C 256.362 230.020,257.091 230.667,257.192 230.667 C 257.293 230.667,258.067 231.387,258.912 232.267 C 259.758 233.147,260.520 233.867,260.607 233.867 C 260.694 233.867,261.412 234.497,262.202 235.267 C 262.992 236.037,264.444 237.387,265.428 238.267 C 266.413 239.147,267.914 240.527,268.763 241.333 C 269.613 242.140,270.893 243.310,271.608 243.933 L 272.907 245.067 278.054 245.067 C 280.884 245.067,283.200 244.995,283.200 244.906 C 283.200 244.818,282.403 244.008,281.428 243.106 C 280.453 242.205,278.892 240.747,277.960 239.867 C 277.027 238.987,275.238 237.307,273.983 236.133 C 272.729 234.960,270.866 233.190,269.842 232.200 C 268.819 231.210,267.858 230.400,267.708 230.400 C 267.558 230.400,267.501 230.293,267.582 230.163 C 267.663 230.032,267.424 229.725,267.052 229.481 C 266.680 229.238,265.550 228.234,264.542 227.252 C 263.534 226.270,261.610 224.447,260.267 223.200 C 258.923 221.953,257.001 220.153,255.996 219.200 C 254.990 218.247,253.068 216.447,251.725 215.200 C 250.382 213.953,248.682 212.363,247.948 211.667 C 247.214 210.970,246.498 210.400,246.357 210.400 C 246.217 210.400,246.164 210.299,246.240 210.176 C 246.317 210.052,245.994 209.668,245.523 209.322 C 245.052 208.975,243.827 207.884,242.800 206.896 C 239.162 203.395,237.867 202.193,237.867 202.316 C 237.867 202.385,237.036 201.592,236.020 200.554 C 234.065 198.556,233.468 198.294,233.081 199.267 C 232.833 199.891,224.000 208.821,224.000 208.448 C 224.000 208.331,220.428 211.837,216.063 216.239 L 208.125 224.243 203.450 219.655 C 200.878 217.131,198.151 214.396,197.390 213.577 L 196.006 212.088 196.736 211.444 L 197.467 210.800 196.800 211.600 L 196.133 212.400 196.866 211.755 C 197.268 211.399,197.535 211.046,197.457 210.969 C 197.255 210.766,201.388 206.667,201.794 206.667 C 201.981 206.667,202.109 206.577,202.080 206.467 C 202.051 206.357,209.341 198.947,218.282 190.000 L 234.536 173.733 238.935 178.160 C 241.354 180.595,243.385 182.543,243.448 182.490 C 243.630 182.336,245.067 183.800,245.067 184.140 C 245.067 184.309,246.057 185.351,247.267 186.457 C 248.477 187.562,253.337 192.313,258.067 197.013 C 262.797 201.714,266.667 205.486,266.667 205.397 C 266.667 205.307,267.027 205.578,267.467 206.000 C 267.907 206.422,268.267 206.903,268.267 207.070 C 268.267 207.237,268.593 207.665,268.992 208.020 C 269.528 208.498,269.615 208.527,269.325 208.133 C 268.964 207.642,268.970 207.628,269.391 207.959 C 269.643 208.156,269.823 208.402,269.791 208.504 C 269.759 208.606,271.233 210.129,273.067 211.887 C 274.900 213.645,279.490 218.171,283.267 221.945 C 287.043 225.719,290.133 228.723,290.133 228.620 C 290.133 228.518,290.493 228.778,290.933 229.200 C 291.373 229.622,291.733 230.105,291.733 230.275 C 291.733 230.445,292.001 230.813,292.329 231.092 C 292.918 231.595,292.920 231.595,292.529 231.067 C 292.164 230.575,292.169 230.561,292.591 230.892 C 292.843 231.090,293.023 231.333,292.991 231.433 C 292.959 231.533,294.613 233.228,296.667 235.200 C 298.720 237.172,301.798 240.199,303.506 241.926 L 306.613 245.067 311.969 245.067 L 317.325 245.067 275.854 203.555 C 242.388 170.056,234.320 162.111,234.058 162.394 C 233.800 162.673,233.808 162.703,234.096 162.539 C 234.295 162.425,228.791 167.992,221.865 174.910 L 209.270 187.488 207.640 185.944 C 206.743 185.095,199.366 177.770,191.246 169.667 C 183.126 161.563,176.404 154.937,176.308 154.941 C 176.212 154.944,175.742 155.274,175.264 155.674 M173.133 222.136 C 172.363 222.879,171.733 223.421,171.733 223.341 C 171.733 223.261,170.949 223.947,169.991 224.865 C 169.033 225.782,167.757 226.953,167.156 227.467 C 166.555 227.980,165.333 229.090,164.441 229.933 C 163.549 230.777,162.770 231.467,162.711 231.467 C 162.653 231.467,162.149 231.917,161.592 232.467 C 159.214 234.815,157.333 236.565,157.333 236.429 C 157.333 236.348,156.552 237.029,155.597 237.941 C 154.641 238.854,153.365 240.020,152.761 240.533 C 152.157 241.047,150.809 242.276,149.765 243.266 L 147.867 245.065 153.426 245.066 C 159.470 245.067,159.328 245.098,161.183 243.367 C 162.062 242.546,163.007 241.867,163.270 241.867 C 163.395 241.867,163.424 241.747,163.333 241.600 C 163.243 241.453,163.301 241.333,163.463 241.333 C 163.625 241.333,164.055 241.036,164.418 240.673 C 164.782 240.309,165.142 240.016,165.220 240.021 C 165.361 240.029,166.015 239.459,167.483 238.046 C 167.914 237.632,168.267 237.366,168.267 237.455 C 168.267 237.545,168.609 237.284,169.027 236.876 C 169.748 236.171,171.560 234.603,172.133 234.187 C 172.280 234.081,172.862 233.618,173.427 233.158 C 174.566 232.231,174.308 232.173,176.022 233.746 C 176.255 233.959,176.515 234.133,176.601 234.133 C 176.687 234.133,177.225 234.583,177.795 235.133 C 178.366 235.683,179.116 236.313,179.463 236.533 C 179.810 236.753,180.424 237.233,180.829 237.600 C 181.233 237.967,181.945 238.567,182.409 238.933 C 183.170 239.533,184.758 240.933,185.889 242.001 C 186.121 242.221,186.382 242.400,186.468 242.400 C 186.554 242.400,187.103 242.850,187.688 243.400 C 188.272 243.950,188.937 244.550,189.164 244.733 C 189.468 244.978,191.123 245.064,195.389 245.055 C 200.929 245.043,201.171 245.022,200.587 244.588 C 200.251 244.338,199.201 243.387,198.254 242.474 C 197.308 241.562,196.533 240.879,196.533 240.957 C 196.533 241.035,195.814 240.402,194.936 239.550 C 194.057 238.697,192.864 237.580,192.285 237.067 C 191.706 236.553,190.461 235.413,189.518 234.533 C 188.575 233.653,187.309 232.513,186.705 232.000 C 186.101 231.487,184.825 230.320,183.870 229.408 C 182.915 228.495,182.133 227.816,182.133 227.899 C 182.133 227.981,181.413 227.348,180.534 226.491 C 177.432 223.471,176.854 222.933,176.704 222.933 C 176.621 222.933,176.098 222.450,175.543 221.860 L 174.533 220.786 173.133 222.136 " stroke="none" fill="#f8f4f4" fill-rule="evenodd"></path><path id="path3" d="" stroke="none" fill="#f4fcf8" fill-rule="evenodd"></path><path id="path4" d="" stroke="none" fill="#f4f4fc" fill-rule="evenodd"></path></g></svg>